<?xml version="1.0" encoding="UTF-8" standalone="no"?>

<svg
   xmlns:dc="http://purl.org/dc/elements/1.1/"
   xmlns:cc="http://creativecommons.org/ns#"
   xmlns:rdf="http://www.w3.org/1999/02/22-rdf-syntax-ns#"
   xmlns:svg="http://www.w3.org/2000/svg"
   xmlns="http://www.w3.org/2000/svg"
   xmlns:inkscape="http://www.inkscape.org/namespaces/inkscape"
   xmlns:sodipodi="http://sodipodi.sourceforge.net/DTD/sodipodi-0.dtd"
   width="110"
   height="340"
   id="svg4974"
   version="1.1">
  <defs id="defs4976">
  </defs>
    <g id="debian" transform="translate(0,190)"
      inkscape:label="#g6151" style="display:inline;">
      <g
         id="debian_logo"
         style="fill:#d62766;"
         inkscape:label="#g6106">
        <path
           id="path6108"
           d="m 60.977,47.641 c -1.492,0.02 0.281,0.766 2.23,1.066 0.54,-0.421 1.028,-0.843 1.461,-1.257 -1.211,0.297 -2.449,0.3 -3.695,0.187" />
        <path
           id="path6110"
           d="m 68.997,45.645 c 0.89,-1.227 1.539,-2.57 1.765,-3.961 -0.199,0.988 -0.734,1.844 -1.242,2.746 -2.793,1.758 -0.262,-1.043 0,-2.109 -3,3.781 -0.41,2.265 -0.52,3.324" />
        <path
           id="path6112"
           d="m 71.957,37.942 c 0.18,-2.688 -0.527,-1.836 -0.765,-0.813 0.273,0.145 0.496,1.895 0.765,0.813" />
        <path
           id="path6114"
           d="m 55.309,1.16098 c 0.797,0.14001 1.723,0.25 1.59,0.44101 0.871,-0.19101 1.07,-0.36301 -1.59,-0.44101" />
        <path
           id="path6116"
           d="M 56.903,1.60199 56.344,1.715 56.868,1.668 56.903,1.60199" />
        <path
           id="path6118"
           d="m 81.77,38.961 c 0.09,2.414 -0.703,3.59 -1.422,5.664 l -1.289,0.641 c -1.055,2.051 0.102,1.301 -0.652,2.934 -1.649,1.465 -5.004,4.586 -6.078,4.875 -0.782,-0.016 0.527,-0.926 0.699,-1.278 -2.207,1.516 -1.774,2.274 -5.149,3.196 l -0.097,-0.219 c -8.328,3.918 -19.899,-3.844 -19.75,-14.442 -0.086,0.672 -0.25,0.504 -0.434,0.774 -0.43,-5.449 2.516,-10.926 7.488,-13.164 4.86,-2.403 10.563,-1.418 14.043,1.828 -1.91,-2.504 -5.718,-5.16 -10.23,-4.914 -4.418,0.07 -8.555,2.879 -9.938,5.93 -2.261,1.421 -2.527,5.492 -3.511,6.238 -1.328,9.758 2.496,13.973 8.968,18.933 1.016,0.684 0.286,0.79 0.422,1.313 -2.148,-1.004 -4.117,-2.523 -5.734,-4.387 0.859,1.254 1.785,2.477 2.984,3.438 -2.027,-0.684 -4.734,-4.91 -5.523,-5.082 3.492,6.258 14.176,10.972 19.773,8.633
              -2.586,0.093 -5.875,0.05 -8.785,-1.02 -1.222,-0.629 -2.883,-1.93 -2.586,-2.172 7.633,2.848 15.52,2.156 22.129,-3.137 1.68,-1.308 3.516,-3.535 4.047,-3.566 -0.797,1.199 0.137,0.574 -0.473,1.637 1.672,-2.699 -0.726,-1.098 1.727,-4.66 l 0.906,1.25 c -0.336,-2.243 2.781,-4.965 2.465,-8.512 0.715,-1.082 0.797,1.168 0.035,3.66 1.055,-2.766 0.278,-3.211 0.547,-5.492 0.289,0.765 0.676,1.582 0.875,2.39 -0.684,-2.671 0.699,-4.5 1.047,-6.054 -0.34,-0.149 -1.059,1.179 -1.223,-1.973 0.024,-1.371 0.379,-0.719 0.516,-1.055 -0.266,-0.152 -0.973,-1.203 -1.402,-3.222 0.308,-0.473 0.828,1.226 1.253,1.297 -0.269,-1.602 -0.742,-2.825 -0.761,-4.055 -1.239,-2.59 -0.438,0.344 -1.442,-1.109 -1.316,-4.114 1.09,-0.954 1.254,-2.821 1.996,2.895 3.137,7.383 3.66,9.242 -0.398,-2.265 -1.043,-4.461
              -1.832,-6.585 0.61,0.253 -0.976,-4.661 0.789,-1.403 C 87.2,15.571 81.012,9.07898 75.317,6.03598 76.008,6.672 76.891,7.46899 76.575,7.59799 73.743,5.91498 74.243,5.78198 73.836,5.07098 71.532,4.133 71.379,5.14499 69.852,5.07098 65.504,2.76599 64.668,3.01199 60.665,1.56699 L 60.844,2.418 c -2.879,-0.957 -3.355,0.35998 -6.469,0 C 54.188,2.27399 55.372,1.883 56.348,1.74298 53.567,2.10999 53.696,1.19598 50.969,1.84 51.637,1.37198 52.352,1.05899 53.067,0.656982 50.797,0.792999 47.645,1.97699 48.618,0.898987 44.915,2.55099 38.333,4.87198 34.641,8.336 L 34.528,7.56299 C 32.836,9.59 27.149,13.625 26.7,16.258 l -0.45,0.102 c -0.878,1.488 -1.449,3.179 -2.144,4.711 -1.149,1.961 -1.688,0.754 -1.523,1.062 -2.262,4.59 -3.391,8.449 -4.36,11.614 0.692,1.031 0.016,6.23 0.277,10.39
              -1.132,20.543 14.418,40.488 31.418,45.09 2.489,0.891 6.196,0.859 9.348,0.945 -3.719,-1.062 -4.195,-0.558 -7.82,-1.824 -2.61,-1.23 -3.184,-2.637 -5.035,-4.242 l 0.73,1.293 c -3.629,-1.281 -2.109,-1.59 -5.062,-2.524 l 0.781,-1.019 c -1.176,-0.09 -3.113,-1.981 -3.645,-3.031 l -1.285,0.05 c -1.543,-1.906 -2.367,-3.281 -2.308,-4.347 l -0.415,0.738 c -0.468,-0.805 -5.687,-7.156 -2.98,-5.68 -0.5,-0.457 -1.172,-0.746 -1.894,-2.062 l 0.55,-0.629 c -1.3,-1.676 -2.394,-3.824 -2.312,-4.539 0.691,0.937 1.176,1.113 1.652,1.273 -3.289,-8.16 -3.473,-0.445 -5.965,-8.308 l 0.524,-0.039 c -0.403,-0.61 -0.649,-1.27 -0.973,-1.918 l 0.227,-2.282 c -2.368,-2.734 -0.661,-11.644 -0.317,-16.527 0.235,-1.984 1.977,-4.098 3.297,-7.418 L 26.211,27 c 1.539,-2.687 8.801,-10.796 12.164,-10.382
              1.629,-2.043 -0.32,-0.008 -0.64,-0.52 3.578,-3.699 4.703,-2.613 7.117,-3.281 2.602,-1.543 -2.234,0.601 -1,-0.586 4.5,-1.149 3.188,-2.61302 9.063,-3.19502 0.617,0.35101 -1.434,0.543 -1.95,1.00002 3.75,-1.83602 11.868,-1.41402 17.141,1.015 6.117,2.86 12.992,11.313 13.266,19.266 l 0.304,0.082 c -0.152,3.16 0.481,6.816 -0.625,10.176 l 0.754,-1.59" />
        <path
           id="path6120"
           d="m 44.665,49.692 -0.211,1.047 c 0.98,1.332 1.761,2.777 3.015,3.82 -0.898,-1.758 -1.57,-2.484 -2.804,-4.867" />
        <path
           id="path6122"
           d="m 46.989,49.602 c -0.52,-0.574 -0.824,-1.266 -1.172,-1.953 0.328,1.211 1.004,2.25 1.633,3.308 l -0.461,-1.355" />
        <path
           id="path6124"
           d="m 88.071,40.672 -0.219,0.551 c -0.398,2.856 -1.269,5.684 -2.602,8.309 1.469,-2.766 2.422,-5.793 2.821,-8.86" />
        <path
           id="path6126"
           d="M 55.606,0.445984 C 56.614,0.0789795 58.086,0.246979 59.161,0 57.766,0.113983 56.375,0.18399 55,0.359985 l 0.606,0.082001" />
        <path
           id="path6128"
           d="m 20.133,19.305 c 0.231,2.152 -1.617,2.988 0.407,1.567 1.089,-2.454 -0.422,-0.676 -0.407,-1.567" />
        <path
           id="path6130"
           d="m 17.747,29.282 c 0.468,-1.434 0.55,-2.297 0.73,-3.129 -1.293,1.652 -0.594,2.004 -0.73,3.129" />
        <polygon
           id="polygon6132"
           points="63.098,107.696 66.934,111.532 66.934,111.532 63.098,115.368 59.262,111.532 " />
      </g>
      <g
         id="debian_name"
         inkscape:label="#g3272">
        <path
           d="m 13.446,125.504 c -0.043,0.047 -0.043,7.504 -0.137,9.45 -0.09,1.574 -0.23,4.953 -3.56602,4.953 -3.42599,0 -4.26199,-3.938 -4.539,-5.649 C 4.883,132.36 4.883,130.786 4.883,130.09 c 0,-2.222 0.13699,-8.433 5.375,-8.433 1.575,0 2.453,0.465 3.149,0.832 l 0.039,3.015 z m 0.133,18.348 c 0.878,-0.047 1.757,-0.137 3.195,-0.137 0.508,0 0.926,0 1.297,0.047 0.367,0 0.738,0.043 1.156,0.09 -0.738,-1.48 -1.297,-4.816 -1.297,-12.047 0,-7.043 0,-18.949 0.602,-22.562 -1.664,0.785 -3.102,1.296 -6.254,1.574 1.25,1.344 1.25,2.035 1.25,8.152 -0.879,-0.273 -1.988,-0.597 -3.89101,-0.597 -8.293,0 -9.63699,7.226 -9.63699,12.601 0,13.063 6.957,13.063 7.97699,13.063 2.87101,0 4.72701,-1.575 5.51201,-4.305 l 0.09,4.121 z"
           id="path6134" />
        <path
           d="m 25.137,128.61 c 0.047,-3.844 0.832,-7.274 4.121,-7.274 3.614,0 3.891,3.985 3.797,7.274 l -7.918,0 z m 12.512,0.465 c 0,-5.422 -1.063,-10.75 -7.922,-10.75 -9.449,0 -9.449,10.472 -9.449,12.695 0,9.402 4.215,13.109 11.305,13.109 3.148,0 4.679,-0.461 5.511,-0.691 -0.043,-1.668 0.184,-2.731 0.465,-4.168 -0.973,0.602 -2.223,1.391 -5.004,1.391 -7.226,0 -7.32,-6.579 -7.32,-8.852 l 12.324,0 0.09,-2.734 z"
           id="path6136" />
        <path
           d="m 52.723,131.067 c 0,4.308 -0.785,10.101 -6.16,10.101 -0.738,0 -1.668,-0.14 -2.27,-0.277 -0.089,-1.668 -0.089,-4.539 -0.089,-7.875 0,-3.984 0.414,-6.066 0.738,-7.09 0.969,-3.285 3.148,-3.332 3.562,-3.332 3.52,0 4.219,4.863 4.219,8.473 z m -13.297,5.051 c 0,3.425 0,5.375 -0.554,6.855 1.898,0.738 4.261,1.156 7.089,1.156 1.805,0 7.043,0 9.868,-5.789 1.343,-2.683 1.804,-6.301 1.804,-9.035 0,-1.668 -0.183,-5.324 -1.527,-7.644 -1.297,-2.176 -3.383,-3.286 -5.606,-3.286 -4.445,0 -5.742,3.704 -6.437,5.606 0,-2.359 0.043,-10.609 0.414,-14.824 -3.008,1.39 -4.863,1.617 -6.855,1.804 1.804,0.739 1.804,3.797 1.804,13.762 l 0,11.395 z"
           id="path6138" />
        <path
           d="m 66.543,143.852 c -0.925,-0.137 -1.574,-0.23 -2.918,-0.23 -1.476,0 -2.5,0.089 -3.562,0.23 0.461,-0.879 0.644,-1.297 0.785,-4.309 0.184,-4.125 0.231,-15.152 -0.09,-17.468 -0.23,-1.762 -0.644,-2.036 -1.297,-2.5 3.797,-0.368 4.864,-0.649 6.625,-1.481 -0.367,2.035 -0.414,3.059 -0.414,6.16 -0.089,15.989 -0.136,17.7 0.871,19.598"
           id="path6140" />
        <path
           d="m 81.379,130.739 c -0.089,2.918 -0.136,4.957 -0.925,6.578 -0.973,2.086 -2.594,2.683 -3.797,2.683 -2.782,0 -3.383,-2.312 -3.383,-4.585 0,-4.352 3.891,-4.676 5.648,-4.676 l 2.457,0 z m 4.536,-5.364 c 0,-3.523 -0.926,-6.996 -7.879,-6.996 -4.582,0 -7.27,1.387 -8.614,2.086 0.555,1.016 1.02,1.895 1.434,3.891 1.805,-1.574 4.172,-2.406 6.578,-2.406 3.848,0 3.848,2.547 3.848,6.16 -0.879,-0.043 -1.621,-0.137 -2.875,-0.137 -5.883,0 -9.77,2.266 -9.77,8.469 0,2.918 0.879,5.836 3.477,7.09 1.156,0.507 2.312,0.507 2.683,0.507 4.262,0 5.696,-3.148 6.578,-5.093 -0.046,2.035 0,3.285 0.137,4.91 0.832,-0.047 1.668,-0.137 3.059,-0.137 0.785,0 1.527,0.09 2.312,0.137 -0.508,-0.785 -0.785,-1.25 -0.926,-3.059 -0.089,-1.758 -0.089,-3.519 -0.089,-5.972 l 0.047,-9.45 z"
           id="path6142" />
        <path
           d="m 108.075,139.266 c 0.043,1.574 0.043,3.242 0.687,4.586 -1.019,-0.09 -1.621,-0.23 -3.519,-0.23 -1.114,0 -1.715,0.089 -2.594,0.23 0.184,-0.602 0.277,-0.832 0.367,-1.621 0.137,-1.063 0.231,-4.633 0.231,-5.883 l 0,-5.004 c 0,-2.176 0,-5.328 -0.137,-6.437 -0.09,-0.785 -0.32,-2.918 -3.012,-2.918 -2.641,0 -3.519,1.941 -3.844,3.519 -0.367,1.621 -0.367,3.383 -0.367,10.239 0.043,5.929 0.043,6.484 0.508,8.105 -0.785,-0.09 -1.758,-0.184 -3.148,-0.184 -1.114,0 -1.852,0.043 -2.778,0.184 0.324,-0.738 0.508,-1.109 0.602,-3.703 0.094,-2.547 0.277,-15.059 -0.141,-18.024 -0.226,-1.808 -0.691,-2.222 -1.199,-2.687 3.754,-0.184 4.953,-0.785 6.113,-1.387 l 0,4.91 c 0.555,-1.437 1.711,-4.632 6.348,-4.632 5.793,0 5.836,4.214 5.883,6.992 l 0,13.945 z"
           id="path6144" />
      </g>
    </g>
</svg>
