<?xml version="1.0" encoding="UTF-8" standalone="no"?>

<svg
   xmlns:dc="http://purl.org/dc/elements/1.1/"
   xmlns:cc="http://creativecommons.org/ns#"
   xmlns:rdf="http://www.w3.org/1999/02/22-rdf-syntax-ns#"
   xmlns:svg="http://www.w3.org/2000/svg"
   xmlns="http://www.w3.org/2000/svg"
   xmlns:xlink="http://www.w3.org/1999/xlink"
   xmlns:inkscape="http://www.inkscape.org/namespaces/inkscape"
   xmlns:sodipodi="http://sodipodi.sourceforge.net/DTD/sodipodi-0.dtd"
   width="270"
   height="330"
   id="svg5162"
   version="1.1">
  <defs id="defs5164">
    <linearGradient
       xlink:href="#linearGradient11219"
       id="linearGradient11251"
       gradientUnits="userSpaceOnUse"
       x1="331.31177"
       y1="37.66162"
       x2="439.4614"
       y2="187.45703" />
    <linearGradient
       id="linearGradient11219">
      <stop
         style="stop-color:#5168ae;stop-opacity:1"
         offset="0"
         id="stop11221" />
      <stop
         style="stop-color:#546ab5;stop-opacity:1"
         offset="1"
         id="stop11223" />
    </linearGradient>
    <linearGradient
       xlink:href="#linearGradient11227"
       id="linearGradient11253"
       gradientUnits="userSpaceOnUse"
       x1="383.88776"
       y1="29.80127"
       x2="395.74963"
       y2="181.85013" />
    <linearGradient
       id="linearGradient11227">
      <stop
         style="stop-color:#6174b8;stop-opacity:1"
         offset="0"
         id="stop11229" />
      <stop
         style="stop-color:#2f3b63;stop-opacity:1"
         offset="1"
         id="stop11231" />
    </linearGradient>
    <filter
       color-interpolation-filters="sRGB"
       id="filter10230">
      <feGaussianBlur
           stdDeviation="1.3473189"
         id="feGaussianBlur10232" />
    </filter>
    <filter
       color-interpolation-filters="sRGB"
       id="filter10234">
      <feGaussianBlur
           stdDeviation="1.3473189"
         id="feGaussianBlur10236" />
    </filter>
    <linearGradient
       xlink:href="#linearGradient10210"
       id="linearGradient11255"
       gradientUnits="userSpaceOnUse"
       x1="562.57758"
       y1="44.28345"
       x2="562.57758"
       y2="115.3186" />
    <linearGradient
       id="linearGradient10210">
      <stop
         style="stop-color:#4e6ab3;stop-opacity:1;"
         offset="0"
         id="stop10212" />
      <stop
         style="stop-color:#201b32;stop-opacity:1;"
         offset="1"
         id="stop10214" />
    </linearGradient>
  </defs>

    <g id="slackware" transform="scale(0.47) translate(0,380)" inkscape:label="#g11242" style="display:inline;">
      <path 
         d="m 10.60508,261.84109 0,33.32525 0,2.23445 2.2345,0 132.9498,0 0,22.40837 161.61476,0 0,-43.02916 -161.61476,0 0,18.38634 -132.9498,0 0,-33.32525 -2.2345,0 z m 181.3418,21.5465 c 0.1763,-0.0177 0.3592,0 0.5745,0 0.6612,0 1.144,0.0725 1.4684,0.25537 0.0147,0.009 0.0496,0.0227 0.0638,0.0319 0.0626,0.0426 0.1402,0.10688 0.1916,0.1596 0.0557,0.0599 0.1161,0.15013 0.1595,0.22345 0.2538,0.44823 0.3192,1.157 0.3192,2.20253 0,1.02808 -0.0559,1.69781 -0.2873,2.10676 -0.008,0.0136 -0.0233,0.0508 -0.0319,0.0639 -0.0264,0.0382 -0.0647,0.0943 -0.0958,0.12768 -0.005,0.005 -0.0264,0.0266 -0.0318,0.0319 -0.006,0.005 -0.0262,0.0269 -0.0319,0.0319 -0.0235,0.0197 -0.07,0.046 -0.0958,0.0638 -0.0132,0.009 -0.0501,0.0237 -0.0639,0.0319 -0.3248,0.18313 -0.8254,0.25538 -1.5641,0.25537 -1.7931,0 -2.2345,-0.35739 -2.2344,-2.10677 0,-1.35474 0.0757,-2.21804 0.3511,-2.74518 0.0139,-0.0254 0.0489,-0.0719 0.0638,-0.0958 0.0767,-0.11656 0.1806,-0.23856 0.2873,-0.3192 0.0436,-0.0314 0.1107,-0.0695 0.1596,-0.0958 0.0332,-0.0169 0.092,-0.0491 0.1277,-0.0638 0.1818,-0.0713 0.4184,-0.13432 0.6704,-0.1596 z m -35.3363,1.43643 c 0.1107,-0.0125 0.2267,0 0.3512,0 l 7.0544,0 c 0.2078,0 0.3889,0.0229 0.5426,0.0638 0.0471,0.0136 0.1179,0.0467 0.1596,0.0639 0.0246,0.0107 0.0732,0.0199 0.0958,0.0319 0.1101,0.0619 0.2226,0.16539 0.2873,0.25536 0.0124,0.0183 0.0214,0.0445 0.032,0.0638 0.006,0.0131 0.026,0.0503 0.0318,0.0639 0.005,0.0137 0.0273,0.0497 0.0319,0.0638
              0.004,0.0144 -0.004,0.0491 0,0.0638 0.005,0.0224 0.0291,0.0725 0.032,0.0958 0.002,0.0235 -6e-4,0.0714 0,0.0958 l 0,24.06824 6.6395,0 c 1.0934,0 1.6279,0.41874 1.6279,1.46836 0,0.61228 -0.136,1.0153 -0.4149,1.24491 -0.2798,0.21323 -0.7264,0.28728 -1.3407,0.28728 l -15.737,0 c -0.5152,0 -0.9311,-0.10777 -1.2128,-0.3192 -0.1039,-0.0829 -0.2171,-0.20673 -0.2874,-0.31921 -0.1343,-0.23032 -0.2234,-0.548 -0.2234,-0.89378 0,-1.00589 0.6386,-1.46833 1.8194,-1.46836 l 5.9053,0 0,-21.86571 -3.6388,0 c -0.4811,0 -0.8667,-0.0639 -1.0854,-0.0638 -0.8309,0 -1.4112,-0.1372 -1.7236,-0.47881 -0.1974,-0.23179 -0.2874,-0.56245 -0.2874,-0.98954 0,-0.45579 0.1177,-0.83114 0.3511,-1.08531 0.05,-0.0511 0.1316,-0.11733 0.1916,-0.1596 0.2054,-0.13595 0.4815,-0.25158 0.798,-0.28729 z m 66.96969,7.66098 c 0.20481,-0.0169 0.39735,0 0.60645,0 4.06737,0 6.95882,2.65516 6.95882,7.59713 l 0,9.67199 c 0.30613,0 0.65139,3e-5 0.95752,0 1.35579,0 2.01106,0.375 2.01106,1.46836 0,1.22455 -0.73566,1.53219 -2.26642,1.53219 l -4.72427,0 c -1.53067,0 -2.13864,-0.13269 -2.13864,-1.53219 0,-0.44281 0.099,-0.76277 0.28734,-0.98954 0.31992,-0.35602 0.9186,-0.47879 1.8513,-0.47882 0.21869,0 0.43984,3e-5 0.70235,0 l 0,-8.87397 c 0,-3.41126 -1.57417,-5.13925 -4.37319,-5.13924 -2.58032,0 -5.55421,1.94662 -5.55421,5.13924 l 0,8.87397 c 0.34986,0 0.66334,-0.0638 0.92566,-0.0638 1.48704,0 2.04292,0.35137 2.04292,1.5322 0,1.44323 -0.64812,1.53219 -2.26632,1.53219 l -3.89433,0
              c -0.17498,0 -0.5806,0 -1.14915,0 -0.78448,0 -1.29511,-0.21914 -1.56406,-0.63841 -0.138,-0.23032 -0.2235,-0.548 -0.2235,-0.89378 0,-1.22456 0.74046,-1.46833 2.48982,-1.46836 0.13126,0 0.27191,3e-5 0.44689,0 l 0,-13.694 c -0.30613,0 -0.65149,1e-5 -0.95762,0 -1.35579,0 -1.97909,-0.43883 -1.97909,-1.5322 0,-0.37174 0.0706,-0.65275 0.19153,-0.86185 0.008,-0.0128 0.0236,-0.0516 0.032,-0.0639 0.004,-0.006 0.0275,-0.026 0.0319,-0.0319 0.004,-0.006 0.0273,-0.0263 0.0319,-0.0319 0.005,-0.005 0.0272,-0.0266 0.032,-0.0319 0.42738,-0.45099 1.29522,-0.47882 2.6175,-0.47881 l 2.01106,0 c 0.31155,0 0.57508,0.0704 0.7661,0.1596 0.0154,0.008 0.0491,0.0237 0.0637,0.0319 0.0928,0.0554 0.19683,0.14698 0.25536,0.22345 0.013,0.018 0.0208,0.0448 0.032,0.0638 0.007,0.0129 0.0258,0.0505 0.032,0.0638 0.006,0.0135 0.0268,0.0499 0.0319,0.0638 0.0117,0.0354 0.0251,0.0898 0.0319,0.12769 0.004,0.023 -0.002,0.072 0,0.0958 8.1e-4,0.0161 0,0.0474 0,0.0638 l 0,1.43643 c 1.86284,-1.7439 3.67042,-2.70935 5.65001,-2.87286 z m -36.83649,0.54265 c 0.0174,-2.4e-4 0.046,0 0.0638,0 l 6.2565,0 c 0.2856,0 0.5182,0.0521 0.7022,0.12768 0.0245,0.0107 0.0732,0.0519 0.0958,0.0638 0.0146,0.008 0.05,0.0231 0.0638,0.0319 0.0135,0.009 0.0513,0.0223 0.0639,0.0319 0.006,0.005 0.026,0.0269 0.0319,0.0319 0.006,0.005 0.0263,0.0266 0.0319,0.0319 0.005,0.005 0.0268,0.0264 0.0319,0.0319 0.01,0.0113 0.0229,0.0521 0.032,0.0638 0.004,0.006 0.0278,0.0258 0.0319,0.0319 0.004,0.006
              0.0282,0.0256 0.0318,0.0319 0.007,0.0129 0.0258,0.0505 0.032,0.0638 0.0146,0.0339 0.0223,0.0913 0.032,0.12769 0.0104,0.0443 0.0284,0.11198 0.0319,0.1596 8e-4,0.0161 0,0.0474 0,0.0638 l 0,15.83269 6.863,0 c 0.6321,0 1.0801,0.15267 1.3405,0.47882 0.1762,0.23603 0.2874,0.56313 0.2874,0.98954 0,0.44007 -0.085,0.79019 -0.2234,1.02146 -0.2525,0.38866 -0.7396,0.51073 -1.5322,0.51073 l -16.5669,0 c -0.7284,0 -1.2386,-0.21914 -1.5004,-0.63841 -0.1343,-0.23032 -0.2234,-0.548 -0.2234,-0.89378 0,-1.00589 0.6068,-1.46833 1.7876,-1.46836 l 6.5438,0 0,-13.694 -4.1817,0 c -1.1808,0 -1.7875,-0.5263 -1.7875,-1.5322 0,-0.3772 0.0955,-0.69378 0.2553,-0.9257 0.2638,-0.35776 0.74,-0.56565 1.4046,-0.57457 z m 58.766,0 c 0.0176,-2.4e-4 0.0462,0 0.0639,0 l 3.22394,0 c 0.6089,0 0.93117,0.13851 1.0853,0.38305 0.0176,0.0306 0.0504,0.0933 0.0639,0.12768 0.0786,0.22089 0.0958,0.51794 0.0958,0.89378 0,0.0875 0,0.13596 0,0.22345 l 0,10.24656 c 0,3.49874 1.46427,5.13923 4.78801,5.13924 2.88655,0 5.65003,-1.99035 5.65003,-5.13924 l 0,-8.84205 -2.93671,0 c -0.51522,0 -0.89684,-0.11351 -1.14915,-0.31921 -0.0673,-0.0588 -0.14168,-0.14818 -0.19152,-0.22344 -0.14914,-0.24172 -0.2235,-0.57953 -0.2235,-0.98955 0,-0.45921 0.10735,-0.81391 0.31931,-1.05338 0.27477,-0.2902 0.72677,-0.4469 1.37254,-0.44689 l 4.56461,0 c 1.48705,0 1.46836,0.80652 1.46846,2.07485 l 0,14.65162 c 0.30614,0 0.68336,3e-5 0.98949,0 0.86856,0 1.43097,0.17102 1.72372,0.57458 0.15006,0.2229
              0.22351,0.51794 0.22351,0.89378 0,0.4715 -0.13331,0.86162 -0.38305,1.11722 -0.28408,0.27306 -0.72249,0.41497 -1.30881,0.41497 l -3.25591,0 c -0.22075,0 -0.41473,-0.0177 -0.57458,-0.0638 -0.0736,-0.0229 -0.16313,-0.0638 -0.2234,-0.0958 -0.0147,-0.008 -0.05,-0.0231 -0.0639,-0.0319 -0.0874,-0.0588 -0.16997,-0.14399 -0.22339,-0.22345 -0.008,-0.0125 -0.0249,-0.051 -0.032,-0.0638 -0.003,-0.007 -0.0287,-0.0253 -0.0319,-0.0319 -0.0146,-0.0339 -0.0223,-0.0913 -0.0319,-0.12768 -0.005,-0.0221 -0.0285,-0.0728 -0.032,-0.0958 -0.003,-0.0233 10e-4,-0.0717 0,-0.0958 -2e-4,-0.008 0,-0.0237 0,-0.0319 l 0,-1.43643 c -2.23048,1.74937 -4.05919,2.74517 -6.63951,2.74518 -4.67953,0 -7.05444,-2.54757 -7.05454,-7.53329 l 0,-9.60815 c -0.30613,0 -0.65139,1e-5 -0.95752,0 -0.72034,0 -1.24394,-0.13532 -1.56417,-0.41497 -0.26364,-0.24638 -0.41502,-0.62179 -0.41502,-1.11723 0,-0.3772 0.0955,-0.69378 0.25537,-0.9257 0.0556,-0.0753 0.15025,-0.1639 0.22349,-0.22344 0.27376,-0.20871 0.67386,-0.34432 1.18102,-0.35113 z m 33.32525,0 c 0.0566,-5.3e-4 0.10092,0 0.15965,0 l 4.3732,0 c 1.48695,0 2.20248,0.43883 2.20248,1.5322 0,1.00588 -0.83975,1.50028 -2.45785,1.50027 l 4.59659,4.50082 4.37309,-4.50082 c -0.13126,0 -0.27191,1e-5 -0.44689,0 -1.57439,0 -2.36213,-0.49441 -2.36213,-1.50027 0,-1.09335 0.71553,-1.53222 2.20247,-1.5322 l 5.55432,0 c 0.30061,0 0.57355,0.098 0.79796,0.22345 0.0701,0.0416 0.16313,0.10656 0.22351,0.1596 0.0252,0.0234 0.0724,0.0703 0.0957,0.0958
              0.21891,0.25215 0.35119,0.60531 0.35108,1.02146 0,1.09336 -0.74741,1.5641 -2.23435,1.56412 -0.17497,0 -0.38785,-0.0319 -0.60655,-0.0319 l -6.12878,6.38415 7.50143,7.30985 c 0.0874,0 0.1477,3e-5 0.19143,0 0.64923,0 1.13453,0.21032 1.40451,0.57458 0.17099,0.24529 0.28733,0.58179 0.28733,0.95762 0,1.26829 -0.70502,1.46835 -2.58562,1.46835 l -4.3731,0 c -0.81186,0 -1.42637,-0.139 -1.78756,-0.44689 -0.26139,-0.23801 -0.41493,-0.57864 -0.41493,-1.02146 0,-0.91843 0.6469,-1.53217 1.91525,-1.5322 l 1.18102,0 -5.36268,-5.26692 -4.91579,5.26692 c 0.21869,0 0.41971,-0.0638 0.63841,-0.0638 1.44322,0 2.26642,0.63391 2.26632,1.59604 0,1.04962 -0.79113,1.46835 -2.23435,1.46835 l -5.87342,0 c -0.87478,0 -1.46845,-0.54641 -1.46845,-1.59603 0,-0.96215 0.81972,-1.40449 2.3941,-1.40452 0.13126,0 0.27192,3e-5 0.44689,0 l 6.89489,-7.08641 -6.76721,-6.60759 c -0.0874,0 -0.23177,1e-5 -0.31921,0 -1.57437,0 -2.17061,-0.3632 -2.17061,-1.50027 0,-1.22866 0.70461,-1.51562 2.45785,-1.5322 z m -253.51205,-24.06156 c 0,1.76372 0.7396,2.67403 2.0482,2.67403 0.6259,0 1.5362,-0.45516 2.8447,-1.30857 3.1291,0.79652 5.917,1.25168 8.4203,1.25168 6.9411,0 10.8669,-3.47055 10.8669,-8.24965 0,-5.46183 -3.812,-7.62381 -11.1513,-7.7945 -5.4618,-0.11378 -8.648,-0.39825 -8.648,-3.35674 0,-2.21888 2.1052,-4.09638 5.8033,-4.09638 2.9015,0 4.9498,0.68273 7.0548,2.56023 1.65,1.47926 2.2189,2.9016 3.4705,2.9016 1.3655,0 1.8776,-0.96721 1.8776,-2.7878 l 0,-3.24298 c 0,-1.8775
              -0.6259,-2.7878 -1.8776,-2.7878 -1.4791,0 -2.0481,1.08098 -2.8446,1.08098 -0.7966,0 -3.0154,-1.25167 -7.0549,-1.25167 -6.8842,0 -10.6961,3.18608 -10.6961,7.79449 0,4.94978 4.0394,7.68071 11.6064,7.68071 0.7965,0 1.3086,0 1.593,0 4.2102,0 6.2584,0.79652 6.2584,3.64122 0,2.50334 -2.5034,4.32396 -6.5428,4.32396 -3.7551,0 -6.9411,-1.36546 -8.4204,-3.29986 -1.0809,-1.42236 -0.9103,-2.95849 -2.6171,-2.95849 -1.4793,0 -1.9913,0.79651 -1.9913,2.27575 l 0,4.94979 m 37.9001,-30.38144 0,28.44705 -7.6807,0 c -1.5362,0 -2.3326,0.62584 -2.3326,1.93439 0,1.30857 0.7395,1.99129 2.2188,1.99129 l 20.4819,0 c 1.6499,0 2.2758,-0.39825 2.2758,-1.99129 0,-1.36545 -0.6828,-1.93439 -2.1052,-1.93439 l -8.6479,0 0,-31.29176 c 0,-0.68272 -0.512,-1.13788 -1.5929,-1.13788 l -9.16,0 c -1.4793,0 -2.2189,0.68272 -2.2189,1.99129 0,1.42235 0.7965,1.93439 2.6172,1.93439 0.2844,0 0.7965,0.0569 1.4222,0.0569 l 4.7223,0 m 38.1675,28.8453 0.2844,1.70682 c 0.2276,1.19478 0.9104,1.82061 1.9344,1.82061 l 4.3808,0 c 1.4793,0 2.219,-0.68272 2.219,-1.99129 0,-1.64992 -0.9673,-1.93439 -3.2999,-1.93439 l -1.4224,0 0,-12.57361 c 0,-6.71349 -3.2998,-9.84268 -10.4116,-9.84268 -6.2583,0 -10.3547,1.9913 -10.3547,3.9257 0,1.42235 0.8534,2.33266 1.8775,2.33266 2.162,0 4.4377,-2.33266 8.3634,-2.33266 4.267,0 6.2584,1.9913 6.2584,6.25836 0,0.0569 0,0.11378 0,0.17068 -2.2758,-0.56895 -4.4378,-0.85342 -6.5997,-0.85342 -8.2496,0 -12.8581,3.47055 -12.8581,9.21685 0,4.89289 3.6412,8.30654
              9.2168,8.30654 3.8119,0 7.3963,-1.47926 10.4117,-4.21017 m -0.1707,-8.76169 0,3.01538 c 0,2.50335 -4.5516,5.68942 -9.5583,5.68942 -3.2429,0 -5.4617,-1.8775 -5.4617,-4.32395 0,-3.12917 3.2429,-5.34804 9.1598,-5.34804 2.0483,0 3.9826,0.34136 5.8602,0.96719 m 40.5974,-5.00668 0,-5.17736 c 0,-2.38955 -0.2844,-3.41365 -1.9912,-3.41365 -1.4224,0 -2.162,0.51205 -2.162,1.76372 0,0 0,0.0569 0,0.11378 -3.0723,-1.53614 -5.8601,-2.33266 -8.7617,-2.33266 -7.9652,0 -13.9959,5.8601 -13.9959,13.5408 0,7.6807 5.9738,13.48391 14.0528,13.48391 6.7135,0 12.9718,-4.15327 12.9718,-6.77041 0,-1.13788 -0.7965,-1.93439 -1.9343,-1.93439 -1.4793,0 -2.5603,1.36546 -4.2671,2.50334 -1.9913,1.30857 -4.267,2.04819 -6.486,2.04819 -5.8031,0 -9.5012,-3.8688 -9.5012,-9.38753 0,-5.34804 3.9826,-9.15994 9.7288,-9.15994 3.2999,0 5.917,1.53613 7.6238,4.55152 0.8534,1.53613 1.4224,2.21887 2.6172,2.21887 1.3654,0 2.105,-0.68274 2.105,-2.04819 m 13.6823,6.65661 2.5033,-2.27576 8.2497,8.98927 c -1.4223,0.45515 -2.1619,1.13788 -2.1619,2.16198 0,1.25166 0.7396,1.7637 2.3326,1.7637 l 7.5101,0 c 1.4223,0 2.2188,-0.68272 2.2188,-1.99129 0,-1.42234 -0.6258,-1.99129 -2.2188,-1.99129 l -2.4465,0 -10.4685,-11.37882 4.0395,-3.52744 c 1.9912,-1.70682 3.8688,-2.67402 5.2342,-2.84469 2.162,-0.28447 3.5275,-0.1138 3.5275,-2.0482 0,-1.25167 -0.7396,-1.87751 -2.162,-1.87751 l -7.51,0 c -1.5931,0 -2.3896,0.56895 -2.3896,1.64993 0,0.85341 0.5689,1.47926 1.7637,1.99131 l -8.0221,6.7135 0,-19.91294
              c 0,-0.68272 -0.512,-1.13788 -1.593,-1.13788 l -5.2911,0 c -1.4793,0 -2.2189,0.68272 -2.2189,1.99129 0,1.82061 1.1948,1.9913 3.755,1.9913 l 1.1379,0 0,28.44705 -1.3086,0 c -2.4464,0 -3.5274,0.22757 -3.5274,1.93439 0,1.30857 0.7965,1.99129 2.2758,1.99129 l 5.1204,0 c 0.9103,0 1.6499,-0.85341 1.6499,-2.44644 l 0,-8.19275 m 39.2454,-3.47054 3.6981,12.63049 c 0.5121,1.70682 1.081,2.44645 2.7309,2.44645 1.3086,0 1.9344,-0.51205 2.3327,-1.8775 l 6.2583,-20.82324 c 1.76376,0 2.38961,-0.51205 2.38961,-1.9913 0,-1.30857 -0.62585,-1.93441 -1.70686,-1.93441 l -7.45315,0 c -1.7637,0 -2.4464,0.34137 -2.4464,1.93441 0,1.64992 0.9103,2.04819 3.243,2.04819 0.5688,0 1.1947,0 1.9343,-0.0569 l -4.6653,16.66996 -3.4705,-11.5495 c -0.5121,-1.70681 -1.0809,-2.44645 -2.7309,-2.44645 -1.3086,0 -1.9345,0.56895 -2.3327,1.87751 l -3.5843,12.11844 -4.7791,-16.66996 c 0.6827,0.0569 1.2516,0.0569 1.8206,0.0569 2.4464,0 3.4136,-0.39827 3.4136,-2.04819 0,-1.64993 -0.7396,-1.93441 -2.5033,-1.93441 l -7.4531,0 c -1.4224,0 -2.1051,0.68274 -2.1051,1.93441 0,1.47925 0.6827,1.9913 2.4465,1.9913 l 6.3721,20.25429 c 0.512,1.70682 1.081,2.44645 2.7308,2.44645 1.2518,0 1.9914,-0.56894 2.3328,-1.8775 l 3.5274,-13.19944 m 38.4585,10.5823 0.28448,1.70682 c 0.22758,1.19478 0.91033,1.82061 1.93445,1.82061 l 4.38086,0 c 1.47918,0 2.21881,-0.68272 2.21881,-1.99129 0,-1.64992 -0.96721,-1.93439 -3.29983,-1.93439 l -1.42238,0 0,-12.57361 c 0,-6.71349 -3.29985,-9.84268 -10.41158,-9.84268
              -6.25841,0 -10.35478,1.9913 -10.35478,3.9257 0,1.42235 0.85343,2.33266 1.87755,2.33266 2.16193,0 4.43775,-2.33266 8.36344,-2.33266 4.26706,0 6.25831,1.9913 6.25831,6.25836 0,0.0569 0,0.11378 0,0.17068 -2.27572,-0.56895 -4.43776,-0.85342 -6.59969,-0.85342 -8.24965,0 -12.85808,3.47055 -12.85808,9.21685 0,4.89289 3.64121,8.30654 9.21687,8.30654 3.8119,0 7.39621,-1.47926 10.41157,-4.21017 m -0.17067,-8.76169 0,3.01538 c 0,2.50335 -4.55155,5.68942 -9.55816,5.68942 -3.24294,0 -5.46187,-1.8775 -5.46187,-4.32395 0,-3.12917 3.24295,-5.34804 9.15998,-5.34804 2.04814,0 3.98259,0.34136 5.86005,0.96719 m 27.08216,8.36344 0,-11.49262 c 3.6981,-4.21015 6.82726,-6.42903 9.89952,-6.42903 2.16203,0 3.35674,1.70683 4.83602,1.70683 1.1948,0 2.4464,-1.25167 2.4464,-2.61713 0,-2.04819 -2.04814,-3.58434 -5.51866,-3.58434 -4.43775,0 -8.19275,2.16199 -11.66328,6.54283 l 0,-4.72221 c 0,-0.79652 -0.51205,-1.13789 -1.53617,-1.13789 l -6.31521,0 c -1.47928,0 -2.21893,0.62584 -2.21893,1.93441 0,1.42235 0.79655,1.9913 2.6171,1.9913 0.28448,0 0.79654,0 1.42238,0 l 1.87756,0 0,17.80785 -4.89292,0 c -1.53618,0 -2.33271,0.62584 -2.33271,1.93439 0,1.30857 0.79653,1.99129 2.27582,1.99129 l 18.14917,0 c 1.64996,0 2.27582,-0.39825 2.27582,-1.99129 0,-1.36545 -0.68275,-1.93439 -2.10513,-1.93439 l -9.21678,0 m 25.39839,-11.32193 c 1.08091,-4.60841 4.66534,-7.33935 9.55814,-7.33935 4.49465,0 8.02207,2.90161 8.53413,7.33935 l -18.09227,0 m -0.11378,3.64122 18.66121,0 c 3.41364,0
              4.60845,0 4.60845,-2.61713 0,-6.20145 -5.1774,-12.17534 -13.59774,-12.17534 -8.59091,0 -14.50795,5.51874 -14.50795,13.48391 0,8.30653 5.34809,13.59769 13.9391,13.59769 3.75501,0 7.79448,-0.91031 11.60638,-2.7878 1.64987,-0.79653 2.44641,-1.64995 2.44641,-2.78783 0,-1.02409 -0.85343,-1.82061 -1.93445,-1.82061 -2.5033,0 -6.08762,3.47054 -11.72018,3.47054 -5.74623,0 -9.21676,-3.01539 -9.50123,-8.36343 m 27.52189,-15.69715 c -0.45934,1e-5 -0.88713,0.0824 -1.28336,0.2472 -0.39624,0.16482 -0.75915,0.41202 -1.08875,0.74162 -0.32961,0.32961 -0.57857,0.69604 -0.74688,1.09927 -0.16831,0.39974 -0.25246,0.82753 -0.25246,1.28336 0,0.45235 0.0842,0.87838 0.25246,1.27811 0.16831,0.39623 0.41727,0.75914 0.74688,1.08876 0.3296,0.3296 0.69251,0.57856 1.08875,0.74687 0.39623,0.16481 0.82402,0.24721 1.28336,0.24721 0.46285,0 0.89239,-0.0824 1.28863,-0.24721 0.39973,-0.16831 0.76439,-0.41727 1.09401,-0.74687 0.3261,-0.3261 0.5698,-0.68727 0.7311,-1.0835 0.1648,-0.39623 0.2472,-0.82402 0.2472,-1.28337 0,-0.46635 -0.0824,-0.89764 -0.2472,-1.29388 -0.16481,-0.39973 -0.40852,-0.76265 -0.7311,-1.08875 -0.32962,-0.3296 -0.69428,-0.5768 -1.09401,-0.74162 -0.39624,-0.1648 -0.82578,-0.24719 -1.28863,-0.2472 m 0,-0.54175 c 0.53298,1e-5 1.02915,0.0964 1.4885,0.28928 0.46284,0.19286 0.88536,0.4804 1.26758,0.86259 0.38219,0.38221 0.66797,0.80298 0.85733,1.26232 0.18934,0.45936 0.28401,0.95903 0.28402,1.49901 -1e-5,0.53299 -0.0947,1.02915 -0.28402,1.4885 -0.18936,0.45584
              -0.47514,0.87485 -0.85733,1.25706 -0.38222,0.3822 -0.80474,0.66974 -1.26758,0.86259 -0.45935,0.19285 -0.95552,0.28928 -1.4885,0.28928 -0.53298,0 -1.0309,-0.0964 -1.49375,-0.28928 -0.45935,-0.19285 -0.88012,-0.48039 -1.26232,-0.86259 -0.3822,-0.38221 -0.66798,-0.80122 -0.85733,-1.25706 -0.18935,-0.45935 -0.28402,-0.95551 -0.28402,-1.4885 0,-0.53998 0.0947,-1.03965 0.28402,-1.49901 0.18935,-0.45934 0.47513,-0.88011 0.85733,-1.26232 0.3822,-0.38219 0.80297,-0.66973 1.26232,-0.86259 0.46285,-0.19285 0.96077,-0.28927 1.49375,-0.28928 m -0.14201,2.17751 -0.64694,0 0,1.45167 0.64694,0 c 0.38571,0 0.65395,-0.0543 0.80474,-0.16305 0.15427,-0.10869 0.23142,-0.29454 0.23143,-0.55753 -1e-5,-0.26648 -0.0772,-0.45407 -0.23143,-0.56278 -0.15429,-0.11221 -0.42254,-0.16831 -0.80474,-0.16831 m 0.0368,-0.54175 c 0.61713,1e-5 1.07824,0.1052 1.3833,0.31558 0.30506,0.20689 0.45759,0.52247 0.45759,0.94674 0,0.30157 -0.0929,0.55053 -0.27876,0.74688 -0.18235,0.19637 -0.44183,0.32435 -0.77843,0.38395 0.0842,0.0281 0.18407,0.11046 0.2998,0.24721 0.11921,0.13325 0.25947,0.32786 0.42077,0.58382 l 0.72058,1.17292 -0.90466,0 -0.6785,-1.09927 c -0.20689,-0.33663 -0.3752,-0.54876 -0.50494,-0.63643 -0.12624,-0.0912 -0.28403,-0.13675 -0.47337,-0.13675 l -0.34714,0 0,1.87245 -0.81525,0 0,-4.3971 1.49901,0"
         style="fill:#000000;fill-opacity:1;fill-rule:nonzero;stroke:none;stroke-width:1.00000048pt;marker:none;visibility:visible;display:inline;overflow:visible;"
         id="slackware_name"
         inkscape:label="#rect4402" />
      <g
         id="slackware_logo"
         inkscape:label="#g11235"
         style="">
        <path
           style="fill:url(#linearGradient11251);fill-opacity:1;stroke:url(#linearGradient11253);stroke-width:3.82938361;stroke-miterlimit:4;stroke-opacity:1;stroke-dasharray:none;"
           id="path9232"
           d="m 453.7468,97.45929 c 0,53.96927 -43.75073,97.72 -97.72,97.72 -53.96926,0 -97.72,-43.75073 -97.72,-97.72 0,-53.96927 43.75074,-97.72 97.72,-97.72 53.96927,0 97.72,43.75073 97.72,97.72 z"
           transform="matrix(1.0445545,0,0,1.0445545,-207.83729,12.964357)" />
        <path
           id="path10218"
           d="m 93,135.40625 0,32.90625 0,2.75 2.75,0 135.59375,0 0,-2.75 -135.59375,0 0,-32.90625 -2.75,0 z"
           style="fill:#ffffff;fill-opacity:1;stroke:#ffffff;stroke-width:1;stroke-miterlimit:4;stroke-opacity:1;stroke-dasharray:none;filter:url(#filter10230);" />
        <path
           style="fill:#201b32;fill-opacity:1;stroke:none;"
           d="m 93,135.40625 0,32.90625 0,2.75 2.75,0 135.59375,0 0,-2.75 -135.59375,0 0,-32.90625 -2.75,0 z"
           id="rect9234" />
        <path
           id="path10220"
           d="m 114.40006,143.44374 c 0,7.40949 3.35207,10.62796 8.70856,10.75 7.23904,0.16125 8.86983,-2.71842 9.55093,-7.27118 11.68288,4.79752 21.32375,6.38716 31.57316,6.38716 28.41936,0 49.01671,-13.45725 48.52434,-33.5285 -0.48376,-19.7204 -14.64018,-26.7067 -46.14118,-30.00385 -22.24615,-2.32846 -32.34797,-4.4155 -32.18294,-16.84319 0.16125,-12.22422 12.16703,-18.74101 27.30839,-18.74101 11.87978,0 20.55165,1.28311 25.88599,10.02999 5.23229,8.57954 7.14993,11.70604 12.27443,11.70604 5.59084,0 8.33259,-1.32199 8.33259,-8.9704 l -1.04815,-14.83333 c 0,-7.88749 -3.53318,-9.35985 -8.6551,-9.53479 -9.60355,-0.32251 -4.49876,4.54127 -7.75991,4.54127 -3.26157,0 -13.96379,-5.46091 -30.49896,-5.09709 -29.31516,0.64502 -44.27743,18.7063 -43.30991,31.61631 -0.53215,21.5444 22.10166,28.34201 43.31968,29.84832 24.96066,1.7653 34.89625,6.41006 34.89625,18.36082 0,10.51669 -12.02361,19.45525 -30.98117,19.6165 -15.37417,0.1319 -28.01623,-5.25261 -31.97672,-15.31419 -2.72353,-6.9191 -3.32395,-11.13877 -10.31221,-11.13877 -6.05678,0 -8.15309,1.41114 -8.15309,7.62552"
           style="fill:#ffffff;fill-opacity:1;fill-rule:nonzero;stroke:#ffffff;stroke-width:1;stroke-linecap:butt;stroke-linejoin:miter;stroke-miterlimit:4;stroke-opacity:1;stroke-dasharray:none;stroke-dashoffset:0;marker:none;visibility:visible;display:inline;overflow:visible;filter:url(#filter10234);" />
        <path
           style="fill:url(#linearGradient11255);fill-opacity:1;fill-rule:nonzero;stroke:none;stroke-width:1.0pt;marker:none;visibility:visible;display:inline;overflow:visible;"
           d="m 114.40006,143.44374 c 0,7.40949 3.35207,10.62796 8.70856,10.75 7.23904,0.16125 8.86983,-2.71842 9.55093,-7.27118 11.68288,4.79752 21.32375,6.38716 31.57316,6.38716 28.41936,0 49.01671,-13.45725 48.52434,-33.5285 -0.48376,-19.7204 -14.64018,-26.7067 -46.14118,-30.00385 -22.24615,-2.32846 -32.34797,-4.4155 -32.18294,-16.84319 0.16125,-12.22422 12.16703,-18.74101 27.30839,-18.74101 11.87978,0 20.55165,1.28311 25.88599,10.02999 5.23229,8.57954 7.14993,11.70604 12.27443,11.70604 5.59084,0 8.33259,-1.32199 8.33259,-8.9704 l -1.04815,-14.83333 c 0,-7.88749 -3.53318,-9.35985 -8.6551,-9.53479 -9.60355,-0.32251 -4.49876,4.54127 -7.75991,4.54127 -3.26157,0 -13.96379,-5.46091 -30.49896,-5.09709 -29.31516,0.64502 -44.27743,18.7063 -43.30991,31.61631 -0.53215,21.5444 22.10166,28.34201 43.31968,29.84832 24.96066,1.7653 34.89625,6.41006 34.89625,18.36082 0,10.51669 -12.02361,19.45525 -30.98117,19.6165 -15.37417,0.1319 -28.01623,-5.25261 -31.97672,-15.31419 -2.72353,-6.9191 -3.32395,-11.13877 -10.31221,-11.13877 -6.05678,0 -8.15309,1.41114 -8.15309,7.62552"
           id="path9214" />
      </g>
    </g>
</svg>
